<svg version="1.1" xmlns="http://www.w3.org/2000/svg"
     xmlns:xlink="http://www.w3.org/1999/xlink" width="30.1567" height="27.9405">
    <g>
        <rect height="21.9405" opacity="0" width="24.1567" x="0" y="0"/>
        <path d="M4.96969 23.9332C6.42094 23.9332 9.37922 22.5683 11.7 21.0144C19.5483 21.4914 26.1567 16.9165 26.1567 10.5397C26.1567 4.71785 20.3558 0 13.0784 0C5.8009 0 0 4.71785 0 10.5397C0 14.3544 2.45367 17.7246 6.15316 19.4791C5.62582 20.4769 4.70684 21.6926 4.19766 22.3404C3.60562 23.0953 3.9116 23.9332 4.96969 23.9332ZM5.82235 22.442C5.7286 22.4663 5.70071 22.4032 5.76657 22.3175C6.36832 21.5816 7.32036 20.4101 7.75149 19.5547C8.00332 19.0761 7.92856 18.6606 7.36746 18.3962C3.69504 16.6925 1.49848 13.8277 1.49848 10.5397C1.49848 5.53887 6.63844 1.48676 13.0784 1.48676C19.53 1.48676 24.6663 5.53887 24.6663 10.5397C24.6663 15.5325 19.53 19.5919 13.0784 19.5919C12.6987 19.5919 12.2482 19.5656 11.7177 19.5357C11.3345 19.5321 11.0104 19.6409 10.6595 19.9052C9.00012 20.9809 6.85606 22.1573 5.82235 22.442Z"
              fill="#ffffff" fill-opacity="0.85"/>
    </g>
</svg>