<svg version="1.1" xmlns="http://www.w3.org/2000/svg" xmlns:xlink="http://www.w3.org/1999/xlink" width="19.0313"
     height="17.9865">
    <g>
        <rect height="17.9865" opacity="0" width="19.0313" x="0" y="0"/>
        <path d="M0 6.22471C0 10.294 3.55596 14.292 8.91846 17.7652C9.09326 17.874 9.33779 17.9865 9.51563 17.9865C9.69346 17.9865 9.93799 17.874 10.1165 17.7652C15.4753 14.292 19.0313 10.294 19.0313 6.22471C19.0313 2.88272 16.7309 0.507911 13.6546 0.507911C11.8903 0.507911 10.3559 1.4127 9.51563 2.81279C8.68887 1.41943 7.14092 0.507911 5.37666 0.507911C2.30039 0.507911 0 2.88272 0 6.22471ZM1.20899 6.22471C1.20899 3.53926 2.97344 1.71387 5.36318 1.71387C7.1749 1.71387 8.30527 2.83828 8.96963 3.95713C9.17881 4.27813 9.31758 4.37344 9.51563 4.37344C9.71367 4.37344 9.83897 4.27139 10.0586 3.95713C10.7597 2.85176 11.8601 1.71387 13.6681 1.71387C16.0578 1.71387 17.8223 3.53926 17.8223 6.22471C17.8223 9.88477 14.0025 13.7554 9.69043 16.6276C9.61094 16.6839 9.55469 16.7236 9.51563 16.7236C9.47656 16.7236 9.42031 16.6839 9.34756 16.6276C5.02871 13.7554 1.20899 9.88477 1.20899 6.22471Z"
              fill="#ffffff" fill-opacity="0.85"/>
    </g>
</svg>
